solid screen_panel
  facet normal 1.000000e+00 0.000000e+00 0.000000e+00
    outer loop
      vertex 2.435182e-01 -1.369790e-01 -5.000000e-04
      vertex 2.435182e-01 1.369790e-01 -5.000000e-04
      vertex 2.435182e-01 1.369790e-01 5.000000e-04
    endloop
  endfacet
  facet normal 1.000000e+00 0.000000e+00 0.000000e+00
    outer loop
      vertex 2.435182e-01 -1.369790e-01 -5.000000e-04
      vertex 2.435182e-01 1.369790e-01 5.000000e-04
      vertex 2.435182e-01 -1.369790e-01 5.000000e-04
    endloop
  endfacet
  facet normal -1.000000e+00 0.000000e+00 0.000000e+00
    outer loop
      vertex -2.435182e-01 -1.369790e-01 -5.000000e-04
      vertex -2.435182e-01 -1.369790e-01 5.000000e-04
      vertex -2.435182e-01 1.369790e-01 5.000000e-04
    endloop
  endfacet
  facet normal -1.000000e+00 0.000000e+00 0.000000e+00
    outer loop
      vertex -2.435182e-01 -1.369790e-01 -5.000000e-04
      vertex -2.435182e-01 1.369790e-01 5.000000e-04
      vertex -2.435182e-01 1.369790e-01 -5.000000e-04
    endloop
  endfacet
  facet normal 0.000000e+00 1.000000e+00 0.000000e+00
    outer loop
      vertex -2.435182e-01 1.369790e-01 -5.000000e-04
      vertex -2.435182e-01 1.369790e-01 5.000000e-04
      vertex 2.435182e-01 1.369790e-01 5.000000e-04
    endloop
  endfacet
  facet normal 0.000000e+00 1.000000e+00 0.000000e+00
    outer loop
      vertex -2.435182e-01 1.369790e-01 -5.000000e-04
      vertex 2.435182e-01 1.369790e-01 5.000000e-04
      vertex 2.435182e-01 1.369790e-01 -5.000000e-04
    endloop
  endfacet
  facet normal 0.000000e+00 -1.000000e+00 0.000000e+00
    outer loop
      vertex -2.435182e-01 -1.369790e-01 -5.000000e-04
      vertex 2.435182e-01 -1.369790e-01 -5.000000e-04
      vertex 2.435182e-01 -1.369790e-01 5.000000e-04
    endloop
  endfacet
  facet normal 0.000000e+00 -1.000000e+00 0.000000e+00
    outer loop
      vertex -2.435182e-01 -1.369790e-01 -5.000000e-04
      vertex 2.435182e-01 -1.369790e-01 5.000000e-04
      vertex -2.435182e-01 -1.369790e-01 5.000000e-04
    endloop
  endfacet
  facet normal 0.000000e+00 0.000000e+00 1.000000e+00
    outer loop
      vertex -2.435182e-01 -1.369790e-01 5.000000e-04
      vertex 2.435182e-01 -1.369790e-01 5.000000e-04
      vertex 2.435182e-01 1.369790e-01 5.000000e-04
    endloop
  endfacet
  facet normal 0.000000e+00 0.000000e+00 1.000000e+00
    outer loop
      vertex -2.435182e-01 -1.369790e-01 5.000000e-04
      vertex 2.435182e-01 1.369790e-01 5.000000e-04
      vertex -2.435182e-01 1.369790e-01 5.000000e-04
    endloop
  endfacet
  facet normal 0.000000e+00 0.000000e+00 -1.000000e+00
    outer loop
      vertex 2.435182e-01 -1.369790e-01 -5.000000e-04
      vertex -2.435182e-01 -1.369790e-01 -5.000000e-04
      vertex -2.435182e-01 1.369790e-01 -5.000000e-04
    endloop
  endfacet
  facet normal 0.000000e+00 0.000000e+00 -1.000000e+00
    outer loop
      vertex 2.435182e-01 -1.369790e-01 -5.000000e-04
      vertex -2.435182e-01 1.369790e-01 -5.000000e-04
      vertex 2.435182e-01 1.369790e-01 -5.000000e-04
    endloop
  endfacet
endsolid screen_panel
